  0
SECTION
  2
HEADER
  9
$ACADVER
  1
AC1009
  9
$FILLMODE
 70
 0
  9
$SPLFRAME
 70
 1
  9
$EXTMIN
 10
0
 20
0
 30
0.0
  9
$EXTMAX
 10
1058.33
 20
1058.33
 30
0.0
  0
ENDSEC
  0
SECTION
  2
TABLES
  0
TABLE
  2
LAYER
 70
1
  0
LAYER
  2
0
 70
     0
 62
     7
  6
CONTINUOUS
  0
ENDTAB
  0
ENDSEC
  0
SECTION
  2
ENTITIES
  0
LINE
  8
0
 62
     0
 10
0.0950846
 20
43.2964
 30
0.0
 11
76.4452
 21
43.2964
 31
0.0
  0
LINE
  8
0
 62
     0
 10
76.4452
 20
43.2964
 30
0.0
 11
76.4452
 21
0.283876
 31
0.0
  0
LINE
  8
0
 62
     0
 10
76.4452
 20
0.283876
 30
0.0
 11
0.0950846
 21
0.283876
 31
0.0
  0
LINE
  8
0
 62
     0
 10
0.0950846
 20
0.283876
 30
0.0
 11
0.0950846
 21
43.2964
 31
0.0
  0
LINE
  8
0
 62
     0
 10
2.76986
 20
16.8107
 30
0.0
 11
16.6192
 21
16.8107
 31
0.0
  0
LINE
  8
0
 62
     0
 10
16.6192
 20
16.8107
 30
0.0
 11
16.6192
 21
2.96003
 31
0.0
  0
LINE
  8
0
 62
     0
 10
16.6192
 20
2.96003
 30
0.0
 11
2.76986
 21
2.96003
 31
0.0
  0
LINE
  8
0
 62
     0
 10
2.76986
 20
2.96003
 30
0.0
 11
2.76986
 21
16.8107
 31
0.0
  0
LINE
  8
0
 62
     0
 10
21.8185
 20
19.1905
 30
0.0
 11
35.669
 21
19.1905
 31
0.0
  0
LINE
  8
0
 62
     0
 10
35.669
 20
19.1905
 30
0.0
 11
35.669
 21
5.34127
 31
0.0
  0
LINE
  8
0
 62
     0
 10
35.669
 20
5.34127
 30
0.0
 11
21.8185
 21
5.34127
 31
0.0
  0
LINE
  8
0
 62
     0
 10
21.8185
 20
5.34127
 30
0.0
 11
21.8185
 21
19.1905
 31
0.0
  0
LINE
  8
0
 62
     0
 10
59.92
 20
19.1905
 30
0.0
 11
73.769
 21
19.1905
 31
0.0
  0
LINE
  8
0
 62
     0
 10
73.769
 20
19.1905
 30
0.0
 11
73.769
 21
5.34127
 31
0.0
  0
LINE
  8
0
 62
     0
 10
73.769
 20
5.34127
 30
0.0
 11
59.92
 21
5.34127
 31
0.0
  0
LINE
  8
0
 62
     0
 10
59.92
 20
5.34127
 30
0.0
 11
59.92
 21
19.1905
 31
0.0
  0
LINE
  8
0
 62
     0
 10
40.87
 20
21.5718
 30
0.0
 11
54.719
 21
21.5718
 31
0.0
  0
LINE
  8
0
 62
     0
 10
54.719
 20
21.5718
 30
0.0
 11
54.719
 21
7.72252
 31
0.0
  0
LINE
  8
0
 62
     0
 10
54.719
 20
7.72252
 30
0.0
 11
40.87
 21
7.72252
 31
0.0
  0
LINE
  8
0
 62
     0
 10
40.87
 20
7.72252
 30
0.0
 11
40.87
 21
21.5718
 31
0.0
  0
LINE
  8
0
 62
     0
 10
2.76986
 20
35.8606
 30
0.0
 11
16.6192
 21
35.8606
 31
0.0
  0
LINE
  8
0
 62
     0
 10
16.6192
 20
35.8606
 30
0.0
 11
16.6192
 21
22.01
 31
0.0
  0
LINE
  8
0
 62
     0
 10
16.6192
 20
22.01
 30
0.0
 11
2.76986
 21
22.01
 31
0.0
  0
LINE
  8
0
 62
     0
 10
2.76986
 20
22.01
 30
0.0
 11
2.76986
 21
35.8606
 31
0.0
  0
LINE
  8
0
 62
     0
 10
21.8185
 20
38.2404
 30
0.0
 11
35.669
 21
38.2404
 31
0.0
  0
LINE
  8
0
 62
     0
 10
35.669
 20
38.2404
 30
0.0
 11
35.669
 21
24.3913
 31
0.0
  0
LINE
  8
0
 62
     0
 10
35.669
 20
24.3913
 30
0.0
 11
21.8185
 21
24.3913
 31
0.0
  0
LINE
  8
0
 62
     0
 10
21.8185
 20
24.3913
 30
0.0
 11
21.8185
 21
38.2404
 31
0.0
  0
LINE
  8
0
 62
     0
 10
59.92
 20
38.2404
 30
0.0
 11
73.769
 21
38.2404
 31
0.0
  0
LINE
  8
0
 62
     0
 10
73.769
 20
38.2404
 30
0.0
 11
73.769
 21
24.3913
 31
0.0
  0
LINE
  8
0
 62
     0
 10
73.769
 20
24.3913
 30
0.0
 11
59.92
 21
24.3913
 31
0.0
  0
LINE
  8
0
 62
     0
 10
59.92
 20
24.3913
 30
0.0
 11
59.92
 21
38.2404
 31
0.0
  0
LINE
  8
0
 62
     0
 10
40.87
 20
40.6217
 30
0.0
 11
54.719
 21
40.6217
 31
0.0
  0
LINE
  8
0
 62
     0
 10
54.719
 20
40.6217
 30
0.0
 11
54.719
 21
26.7725
 31
0.0
  0
LINE
  8
0
 62
     0
 10
54.719
 20
26.7725
 30
0.0
 11
40.87
 21
26.7725
 31
0.0
  0
LINE
  8
0
 62
     0
 10
40.87
 20
26.7725
 30
0.0
 11
40.87
 21
40.6217
 31
0.0
  0
ENDSEC
  0
EOF
